Patient4_TMGait_0pt4_03_right_41_EMG.mot
version=1
nRows=26
nColumns=33
inDegrees=no
endheader
time	1LAddLong	2LGlutMax	3LGlutMed	4LIliopsoas	5LSemiMemb	6LBicFemLong	7LRecFem	8LVastMed	9LVastLat	10LGasMed	11LTibAnt	12lTibPost	13LPeroneusLong	14LSol	15LExtDigLong	16LFlexDigLong	17RAddLong	18RGlutMax	19RGlutMed	20RIliopsoas	21RSemiMemb	22RBicFemLong	23RRecFem	24RVastMed	25RVastLat	26RGasMed	27RTibAnt	28RTibPost	29RPeroneusLong	30RSol	31RExtDigLong	32RFlexDigLong
53.66	0.016479	0.025482	-0.037384	0.017853	-0.022125	-0.002594	-0.04837	0.001678	-0.017548	0.092773	0.043335	0.008698	0.018616	-0.075684	0.074158	0.002441	0.054932	-0.076599	0.063019	0.033417	0.048065	-0.14374	0.037537	-0.084076	-0.000153	-0.011444	-0.003052	-0.001373	-0.17395	-0.003204	-0.00061	-0.007629
53.661	0.010986	0.039825	0.024414	0.005188	-0.078735	-0.02121	-0.049133	-0.001831	-0.009155	0.10391	0.12024	0.00946	0.19547	-0.031891	0.060883	0.005341	0.043488	-0.038757	0.30991	0.023804	0.031891	-0.15961	0.009613	-0.096436	0.01236	-0.008698	0.049133	-0.001831	0.14389	0.029449	-0.003357	-0.006714
53.662	0.005188	0.056915	0.031433	0.008545	-0.092163	-0.027161	-0.045929	-0.001526	0.013275	0.049744	0.063019	0.003357	0.32013	-0.017242	0.043182	0.013428	0.019836	-0.054932	0.12573	-0.043945	0.027618	-0.18738	0.036163	-0.10361	0.010529	-0.010529	0.22003	-0.000153	0.19913	0.020447	-0.001526	-0.007935
53.663	0.007019	0.044708	0.026855	-0.010834	-0.040588	-0.046692	-0.027924	0.001373	0.036316	-0.02594	0.038147	0.009308	-0.19653	0.056152	0.016479	-0.002899	0.005951	-0.066376	-0.011444	-0.18738	0.011139	-0.19165	-0.003662	-0.10712	0.005035	-0.007172	0.1178	-0.003967	0.32547	0.014191	-0.002441	-0.003052
53.664	0.019379	0.04715	-0.043793	0.007172	0.020905	-0.061951	-0.04715	0.001831	0.031433	0.046082	0.033569	0.006866	-0.48569	0.009308	-0.043945	0.003357	-0.004272	-0.092926	-0.078583	-0.24048	0.012207	-0.20859	0.002289	-0.08667	0.013428	-0.009308	-0.036469	-0.001068	0.21255	-0.001526	-0.000916	0.00351
53.665	0.015259	0.067749	-0.075836	0.00885	0.025024	-0.07431	-0.053101	-0.003357	0.029449	0.1712	0.028687	0.014648	-0.15198	-0.096741	-0.12238	-0.000458	-0.003815	-0.078888	0.014648	-0.22553	0.021515	-0.21774	0.006104	-0.072937	0.020752	-0.009003	-0.28137	-0.002899	0.12238	-0.042267	-0.00351	0.005951
53.666	0.018311	0.079498	-0.060577	0.008698	0.037689	-0.053711	-0.039978	-0.004578	0.011292	0.14023	0.004883	-0.000153	0.61768	-0.040436	-0.046387	0.001221	0.002594	-0.017395	0.55435	-0.13428	0.01709	-0.21866	0.012054	-0.066376	0.001831	-0.007782	-0.20081	-0.003815	0.12711	-0.032654	-0.002747	-0.001831
53.667	0.020599	0.001068	-0.087738	0.014496	0.10284	-0.042725	-0.010376	-0.005646	0.012817	0.083923	0.015564	0.014191	0.45715	0.014801	-0.021362	0.002136	-0.020447	-0.055847	0.46097	0.18265	0.030518	-0.22156	0.005951	-0.051422	0.011292	-0.013733	-0.17593	-0.002441	0.22705	-0.020142	-0.001678	-0.000916
53.668	0.020294	-0.025482	-0.1004	0.00412	0.097504	-0.003357	0.00351	-0.001678	0.067749	0.085907	-0.006256	0.010376	-0.007019	0.011597	-0.041046	-0.005646	-0.006714	-0.077667	0.09903	0.39581	0.017395	-0.23743	0.052643	-0.07431	0.007019	-0.007782	-0.11551	-0.001373	0.29343	-0.080872	-0.002899	-0.000153
53.669	0.017853	-0.015106	0.015259	0.008087	0.039825	0.055695	0.011444	0.000763	0.15259	0.13565	0.006104	0.009766	-0.046997	-0.067291	-0.058899	-0.00473	-0.012512	-0.071716	0.033112	0.3273	0.018768	-0.2417	-0.000153	-0.077362	-0.001678	-0.003052	-0.10178	-0.003815	0.17853	-0.10605	-0.002136	-0.006409
53.67	0.009308	0.009308	-0.036011	0.022125	0.004272	0.065918	0.045319	0.002441	0.17548	0.061035	0.039825	0.010529	-0.12192	-0.10178	-0.04425	-0.000153	-0.012207	-0.037689	0.13199	0.13336	0.024567	-0.28351	-0.027008	-0.084686	-0.00351	0.002441	-0.079041	-0.000916	-0.28534	-0.069122	-0.002136	-0.008545
53.671	0.009613	-0.00824	-0.097198	0.011597	0.020599	0.030823	0.037537	0.015869	0.11902	0.10941	0.033569	0.010681	-0.22263	-0.033417	-0.003815	-0.00061	-0.014191	-0.050049	0.1767	0.045929	0.016479	-0.28839	0.002899	-0.061798	0.013123	0.006866	-0.096588	0.000458	-0.23743	-0.041046	0.000458	-0.00351
53.672	0.015259	-0.025482	0.1445	0.028229	0.021515	0.012665	-0.011139	0.022736	0.07843	0.18051	-0.058441	-0.007782	0.2211	-0.015564	-0.025635	-0.005341	-0.014343	-0.037537	-0.009613	0.039215	0.008698	-0.32959	-0.002747	-0.057831	0.015564	0.007782	0.15152	0.000153	-0.079498	-0.021057	-0.005188	-0.004425
53.673	0.009308	-0.027618	0.080109	0.037537	0.019379	0.031738	-0.053406	0.027008	0.044708	0.090637	-0.015564	0.0177	0.24307	0.03479	0.046997	0.001526	-0.014496	-0.058594	-0.011902	0.06897	0.009766	-0.34668	-0.012512	-0.04715	-0.002747	-0.001831	0.33157	-0.000763	-0.055847	0.041504	0.000458	-0.012207
53.674	0.010376	-0.072327	-0.057526	0.027618	-0.001984	0.057373	-0.11124	0.026398	-0.10605	-0.087585	0.025787	0.010376	0.17822	0.027466	0.037231	0.001831	-0.017548	-0.069275	-0.07782	0.070343	0.01358	-0.37888	0.010376	-0.062103	-0.007782	-0.011902	0.26733	-0.000916	-0.11673	0.052795	-0.001831	-0.015717
53.675	0.004578	-0.033264	0.018616	0.013123	0.020294	0.036621	-0.14847	0.003357	-0.25986	-0.090637	0.024414	0.014038	0.51498	0.006866	0.12817	-0.002747	-0.020599	-0.030212	0.25009	-0.00351	0.015717	-0.42343	0.019531	-0.080414	-0.001831	-0.024872	0.27924	-0.003815	-0.16678	0.00412	-0.003204	-0.004578
53.676	0.026398	-0.033264	0.08728	-0.009003	0.000916	0.026703	-0.19196	-0.019073	-0.057526	-0.052185	0.0354	0.008545	-0.19547	-0.055695	0.066681	0.001221	-0.016022	-0.014038	0.21759	-0.023956	0.015869	-0.48447	-0.006409	-0.088654	0.009155	-0.02182	0.34042	-0.005798	-0.12131	-0.052795	-0.003967	-0.003815
53.677	0.020294	-0.056915	0.14252	0.005493	-0.008087	0.050201	-0.10468	-0.027618	0.004578	-0.065918	-0.022736	0.01297	-0.16647	0.092773	-0.026703	-0.011292	-0.011292	-0.047302	0.30975	-0.11398	0.009003	-0.58563	0.02655	-0.057373	0.008392	-0.01358	0.50736	0.013275	-0.013428	-0.11627	0.000458	0.001526
53.678	0.013733	-0.075836	0.044403	0.010376	-0.001678	0.02594	-0.054016	-0.024109	-0.10437	-0.014343	0.036774	0.001831	-0.41534	0.18646	-0.083313	-0.001068	0.003967	0.000916	0.52124	-0.11688	-0.004578	-0.69412	0.016479	-0.084076	0.003967	0.004578	0.6044	0.037994	0.092621	-0.14069	-0.010223	0.002594
53.679	0.017548	-0.11139	-0.077362	0.012512	0.00351	0.032349	-0.036163	-0.012665	-0.092773	-0.009613	0.088196	0.00061	-0.61432	0.018616	-0.089264	-0.002594	0.00412	0.041199	0.50049	-0.088654	-0.009003	-0.81787	0.050049	-0.061188	0.011902	-0.008087	0.090637	-0.13046	0.067902	-0.04303	-0.003967	-0.001678
53.68	0.015259	-0.081635	-0.033264	-0.004883	0.001526	0.023804	-0.030518	-0.004272	-0.021057	-0.047913	0.080872	0.001221	-0.1889	-0.031128	-0.14679	-0.000153	0.002747	-0.026245	0.1831	-0.081177	-0.004425	-0.5925	0.071716	-0.05661	0.020905	-0.005493	-0.28503	-0.13229	0.11856	-0.012665	-0.003357	0.005951
53.681	0.01709	-0.070343	-0.007172	-0.005341	0.002289	0.020294	-0.024719	0.000763	-0.02243	-0.001221	-0.026093	0.005188	-0.057526	-0.26169	-0.28992	-0.012512	0.009003	-0.008087	0.18494	0.022736	-0.000153	-0.44327	0.05661	-0.10223	0.00824	-0.009155	-0.46967	-0.031738	0.047455	-0.050812	-0.006409	0.007019
53.682	0.013275	-0.053253	-0.000916	0.005951	0.008545	0.006256	-0.015411	-0.006256	-0.024872	-0.057678	-0.074005	0.008392	0.093689	-0.093689	-0.15518	0.00946	0.005493	0.00351	0.044556	0.059967	-0.001984	-0.33081	0.068054	-0.053711	0.009308	-0.014343	-0.39398	0.11627	-0.025482	-0.097046	-0.004425	-0.005798
53.683	0.012512	-0.049744	0.019073	-0.009613	-0.005493	0.005341	-0.010071	-0.008698	-0.023804	-0.067444	-0.1506	0.003815	0.16876	-0.079193	0.027924	0.002594	0.005035	-0.028992	0.13245	0.001221	-0.007935	-0.24796	0.039978	-0.058594	0.003204	-0.015564	0.087891	0.10742	0.097351	-0.18204	-0.002747	0.000763
53.684	0.022583	-0.040894	0.034027	-0.007782	-0.002441	0.006561	-0.00412	-0.007019	-0.010681	-0.037842	-0.004883	0.007935	0.15961	-0.13382	0.063171	-0.000458	0.001984	-0.011597	0.58838	-0.056152	-0.001221	-0.15884	0.010223	-0.080414	0.014343	-0.014038	0.26367	0.045013	-0.048218	-0.19623	-0.004883	-0.000916
53.685	0.014343	-0.075073	-0.021973	-0.002594	0.000153	-0.008392	-0.011902	-0.003204	-0.031891	-0.051575	0.06546	0.006104	-0.20966	-0.038452	0.15503	0.005493	-0.005341	-0.028992	0.070801	0.024719	-0.005493	-0.09201	-0.015869	0.002441	0.028839	-0.010834	0.42557	0.01297	-0.29526	-0.25559	-0.002747	0.007324
